<svg xmlns="http://www.w3.org/2000/svg" xmlns:xlink="http://www.w3.org/1999/xlink" width="180" height="180" viewBox="0 0 180 180">
  <defs>
    <clipPath id="clip-apple-touch-icon">
      <rect width="180" height="180"/>
    </clipPath>
  </defs>
  <g id="apple-touch-icon" clip-path="url(#clip-apple-touch-icon)">
    <path id="logo" d="M-898.16,487.031l-16.548-9.553V445.63l27.618,15.244,27.618-15.244v31.849l-16.548,9.553A22.115,22.115,0,0,1-887.09,490,22.113,22.113,0,0,1-898.16,487.031Zm70.68-117.217a4.77,4.77,0,0,0-7.158-4.131l-52.412,29.57-52.493-29.57a4.771,4.771,0,0,0-7.158,4.131v89.2l-10.23-5.908A22.155,22.155,0,0,1-968,433.933V366.067a22.156,22.156,0,0,1,11.07-19.173l58.771-33.925a22.124,22.124,0,0,1,22.14,0l58.771,33.925a22.15,22.15,0,0,1,11.07,19.173v67.867a22.149,22.149,0,0,1-11.07,19.17l-10.23,5.908Z" transform="translate(977 -310)" fill="#44c9f6" stroke="rgba(0,0,0,0)" stroke-miterlimit="10" stroke-width="1"/>
  </g>
</svg>
